<svg width="1811" height="649" viewBox="0 0 1811 649" fill="none" xmlns="http://www.w3.org/2000/svg">
<g clip-path="url(#clip0)">
<path d="M332.621 250.17C255.797 250.17 193.496 313.486 193.496 391.593C193.496 454.065 233.36 507.063 288.669 525.78C295.626 527.083 298.166 522.716 298.166 518.966C298.166 515.603 298.044 506.711 297.974 494.914C259.275 503.454 251.101 475.951 251.101 475.951C244.787 459.611 235.656 455.262 235.656 455.262C223.011 446.493 236.595 446.67 236.595 446.67C250.561 447.673 257.901 461.249 257.901 461.249C270.32 482.853 290.478 476.62 298.409 472.993C299.662 463.854 303.262 457.621 307.245 454.082C276.355 450.508 243.865 438.376 243.865 384.198C243.865 368.756 249.292 356.132 258.197 346.236C256.753 342.662 251.988 328.277 259.554 308.82C259.554 308.82 271.242 305.017 297.818 323.311C308.915 320.177 320.811 318.61 332.656 318.557C344.466 318.628 356.38 320.177 367.494 323.329C394.053 305.035 405.723 308.838 405.723 308.838C413.306 328.312 408.541 342.68 407.115 346.254C416.037 356.149 421.412 368.774 421.412 384.216C421.412 438.535 388.887 450.49 357.893 453.994C362.885 458.361 367.337 466.989 367.337 480.177C367.337 499.087 367.163 514.335 367.163 518.966C367.163 522.752 369.668 527.153 376.729 525.762C431.952 507.028 471.781 454.047 471.781 391.593C471.781 313.486 409.48 250.17 332.621 250.17Z" fill="white"/>
</g>
<path d="M202.792 0H153.069V104.42H202.792C206.275 104.42 209.099 101.827 209.099 98.6301V5.78962C209.099 2.5922 206.275 0 202.792 0V0Z" fill="#FF1786"/>
<path d="M209.396 104.42H109.554C106.07 104.42 103.246 101.827 103.246 98.6301V5.78962C103.246 2.5922 106.07 0 109.554 0H209.397C212.88 0 215.705 2.5922 215.705 5.78962V98.6306C215.704 101.828 212.88 104.42 209.396 104.42Z" fill="#FF5CA8"/>
<path d="M180.772 32.6626C177.437 29.6008 172.03 29.6008 168.695 32.6626L138.178 60.6726C134.843 63.7339 134.843 68.6969 138.178 71.7581C139.846 73.289 142.031 74.0541 144.217 74.0541C146.403 74.0541 148.588 73.289 150.255 71.7581L180.771 43.748C184.107 40.6863 184.107 35.7238 180.772 32.6626V32.6626Z" fill="#F6EFEA"/>
<path d="M144.217 46.2644C149.067 46.2644 152.998 42.6561 152.998 38.205C152.998 33.7539 149.067 30.1456 144.217 30.1456C139.368 30.1456 135.437 33.7539 135.437 38.205C135.437 42.6561 139.368 46.2644 144.217 46.2644Z" fill="#F6EFEA"/>
<path d="M174.733 74.2746C179.582 74.2746 183.513 70.6663 183.513 66.2152C183.513 61.7641 179.582 58.1558 174.733 58.1558C169.884 58.1558 165.952 61.7641 165.952 66.2152C165.952 70.6663 169.884 74.2746 174.733 74.2746Z" fill="#F6EFEA"/>
<path d="M174.733 74.0536C179.582 74.0536 183.513 70.4453 183.513 65.9942C183.513 61.5431 179.582 57.9348 174.733 57.9348C169.884 57.9348 165.952 61.5431 165.952 65.9942C165.952 70.4453 169.884 74.0536 174.733 74.0536Z" fill="#E0D2CD"/>
<path d="M168.695 32.4417L159.675 40.721V62.8919L180.772 43.5271C184.108 40.4659 184.108 35.5029 180.772 32.4417C177.437 29.3804 172.029 29.3804 168.695 32.4417V32.4417Z" fill="#E0D2CD"/>
<g clip-path="url(#clip1)">
<path d="M341.254 405.758V580.71C341.254 602.675 284.925 620.474 215.44 620.474C195.486 620.474 176.61 619.003 159.851 616.387C118.242 609.909 89.627 596.367 89.627 580.709V407.152L159.851 406.765L341.254 405.758Z" fill="#4E4F75"/>
<path d="M159.853 406.765V616.388C118.244 609.91 89.6288 596.369 89.6288 580.71V407.152L159.853 406.765Z" fill="#32314C"/>
<path d="M341.254 405.758V432.429C306.308 440.817 262.718 445.798 215.44 445.798C168.162 445.798 124.573 440.817 89.627 432.429V407.152L159.851 406.765L341.254 405.758Z" fill="#32314C"/>
<path d="M215.441 418.698C330.437 418.698 423.66 389.232 423.66 352.885C423.66 316.537 330.437 287.072 215.441 287.072C100.446 287.072 7.22319 316.537 7.22319 352.885C7.22319 389.232 100.446 418.698 215.441 418.698Z" fill="#4E4F75"/>
<path d="M215.439 370.519C174.043 370.519 133.439 366.275 101.109 358.57C101.031 358.552 100.953 358.533 100.875 358.514C95.0221 357.115 95.0221 348.656 100.875 347.256C100.953 347.237 101.031 347.219 101.109 347.2C133.44 339.495 174.043 335.251 215.439 335.251C256.836 335.251 297.439 339.495 329.77 347.2C329.848 347.218 329.926 347.236 330.004 347.256C335.857 348.655 335.857 357.114 330.004 358.514C329.926 358.532 329.848 358.551 329.77 358.57C297.439 366.275 256.835 370.519 215.439 370.519Z" fill="#32314C"/>
<path d="M259.369 343.911L479.781 188.347L463.258 164.355L242.846 319.919L259.369 343.911Z" fill="#ED4596"/>
<path d="M251.107 331.915L471.519 176.351L463.257 164.355L242.845 319.919L251.107 331.915Z" fill="#E65091"/>
<path d="M437.586 242.652C433.596 242.652 430.362 245.926 430.362 249.964V268.976C430.362 273.014 433.596 276.288 437.586 276.288C441.575 276.288 444.809 273.014 444.809 268.976V249.964C444.81 245.926 441.575 242.652 437.586 242.652Z" fill="black"/>
<path d="M437.586 293.836C433.596 293.836 430.362 297.11 430.362 301.149V320.16C430.362 324.199 433.596 327.473 437.586 327.473C441.575 327.473 444.809 324.199 444.809 320.16V301.15C444.81 297.111 441.575 293.836 437.586 293.836Z" fill="black"/>
<path d="M472.257 277.75H453.477C449.488 277.75 446.254 281.024 446.254 285.062C446.254 289.101 449.488 292.375 453.477 292.375H472.257C476.246 292.375 479.48 289.101 479.48 285.062C479.48 281.024 476.246 277.75 472.257 277.75Z" fill="black"/>
<path d="M421.695 292.376C425.685 292.376 428.919 289.102 428.919 285.063C428.919 281.025 425.685 277.751 421.695 277.751H402.915C398.926 277.751 395.692 281.025 395.692 285.063C395.692 289.102 398.926 292.376 402.915 292.376H421.695Z" fill="black"/>
<path d="M49.946 170.399C53.9353 170.399 57.1692 167.125 57.1692 163.087V144.074C57.1692 140.036 53.9353 136.762 49.946 136.762C45.9568 136.762 42.7228 140.036 42.7228 144.074V163.086C42.7219 167.124 45.9568 170.399 49.946 170.399Z" fill="black"/>
<path d="M49.946 221.583C53.9353 221.583 57.1692 218.31 57.1692 214.271V195.259C57.1692 191.221 53.9353 187.947 49.946 187.947C45.9568 187.947 42.7228 191.221 42.7228 195.259V214.271C42.7219 218.311 45.9568 221.583 49.946 221.583Z" fill="black"/>
<path d="M65.8363 186.485H84.6163C88.6055 186.485 91.8395 183.211 91.8395 179.173C91.8395 175.135 88.6055 171.861 84.6163 171.861H65.8363C61.8471 171.861 58.6131 175.135 58.6131 179.173C58.6131 183.211 61.8471 186.485 65.8363 186.485Z" fill="black"/>
<path d="M15.2749 186.485H34.0548C38.044 186.485 41.278 183.211 41.278 179.173C41.278 175.135 38.044 171.861 34.0548 171.861H15.2749C11.2857 171.861 8.05167 175.135 8.05167 179.173C8.05167 183.211 11.2857 186.485 15.2749 186.485Z" fill="black"/>
<path d="M254.329 295.529C258.124 295.529 261.307 292.532 261.533 288.646C261.768 284.615 258.73 281.153 254.748 280.916C231.747 279.542 207.553 279.394 184.373 280.477C180.388 280.663 177.307 284.086 177.491 288.119C177.674 292.153 181.058 295.272 185.039 295.086C207.716 294.025 231.398 294.171 253.896 295.515C254.044 295.525 254.186 295.529 254.329 295.529Z" fill="black"/>
<path d="M355.83 296.684C351.987 295.603 348.004 297.878 346.935 301.769C345.866 305.66 348.115 309.692 351.958 310.774C391.728 321.973 416.432 338.109 416.432 352.885C416.432 366.588 395.529 381.375 360.517 392.441C321.869 404.657 270.346 411.386 215.439 411.386C160.533 411.386 109.01 404.658 70.362 392.441C35.3493 381.376 14.4464 366.588 14.4464 352.886C14.4464 341.593 28.83 331.838 37.4039 327.027C53.6765 317.896 77.3141 310.066 105.757 304.384C109.67 303.602 112.217 299.756 111.445 295.794C110.673 291.832 106.867 289.253 102.96 290.036C37.5275 303.105 0 326.013 0 352.885C0 367.774 11.4607 389.144 66.0551 406.403C106.06 419.047 159.112 426.011 215.439 426.011C271.765 426.011 324.817 419.047 364.822 406.403C419.417 389.146 430.877 367.774 430.877 352.885C430.878 330.272 404.225 310.313 355.83 296.684Z" fill="black"/>
<path d="M106.31 352.275C107.952 350.547 108.722 348.036 108.141 345.527C107.228 341.596 103.339 339.159 99.4564 340.081L99.2148 340.139C93.2615 341.562 89.2618 346.685 89.2618 352.885C89.2618 359.085 93.2615 364.208 99.2139 365.631L99.4536 365.689C132.31 373.519 173.501 377.833 215.44 377.833C257.377 377.833 298.569 373.52 331.432 365.688L331.665 365.632C337.619 364.209 341.617 359.087 341.617 352.886C341.617 346.686 337.618 341.564 331.657 340.138L331.432 340.084C327.548 339.153 323.658 341.587 322.741 345.519C322.154 348.03 322.924 350.545 324.569 352.276C293.363 359.335 254.792 363.207 215.44 363.207C176.089 363.206 137.517 359.334 106.31 352.275Z" fill="black"/>
<path d="M341.25 417.043C337.261 417.043 334.027 420.317 334.027 424.355V580.712C334.027 593.945 287.829 613.165 215.439 613.165C143.048 613.165 96.8502 593.944 96.8502 580.712V550.355C96.8502 546.316 93.6162 543.042 89.627 543.042C85.6378 543.042 82.4038 546.316 82.4038 550.355V580.711C82.4038 595.004 96.8997 607.142 124.324 615.81C148.764 623.535 181.123 627.789 215.439 627.789C249.756 627.789 282.115 623.534 306.555 615.81C333.979 607.141 348.475 595.004 348.475 580.711V424.356C348.474 420.318 345.239 417.043 341.25 417.043Z" fill="black"/>
<path d="M89.6261 533.291C93.6153 533.291 96.8493 530.017 96.8493 525.979V424.356C96.8493 420.318 93.6153 417.044 89.6261 417.044C85.6369 417.044 82.4029 420.318 82.4029 424.356V525.979C82.4029 530.016 85.6369 533.291 89.6261 533.291Z" fill="black"/>
<path d="M485.702 184.145L469.176 160.154C466.893 156.84 462.391 156.029 459.119 158.338L238.708 313.913C237.136 315.022 236.065 316.718 235.728 318.628C235.391 320.537 235.817 322.503 236.913 324.093L253.439 348.085C254.843 350.123 257.088 351.215 259.37 351.215C260.797 351.215 262.237 350.788 263.496 349.901L483.909 194.326C485.48 193.217 486.552 191.521 486.889 189.612C487.224 187.702 486.797 185.735 485.702 184.145ZM261.159 333.724L252.896 321.728L461.457 174.516L469.72 186.512L261.159 333.724Z" fill="black"/>
<path d="M235.287 262.094H114.181C109.956 262.094 106.531 258.761 106.531 254.65V135.281C106.531 131.17 109.956 127.837 114.181 127.837H235.287C239.512 127.837 242.937 131.17 242.937 135.281V254.651C242.938 258.762 239.512 262.094 235.287 262.094Z" fill="#FFBD00"/>
<path d="M235.293 129.008H174.88V262.034H235.293C239.526 262.034 242.956 258.732 242.956 254.658V136.383C242.957 132.31 239.526 129.008 235.293 129.008V129.008Z" fill="#FF8B00"/>
<path d="M198.802 185.462H182.961V170.216C182.961 164.701 178.316 160.23 172.585 160.23C166.855 160.23 162.209 164.701 162.209 170.216V185.462H146.368C140.637 185.462 135.992 189.933 135.992 195.448C135.992 200.963 140.637 205.434 146.368 205.434H162.209V220.68C162.209 226.195 166.854 230.666 172.584 230.666C178.315 230.666 182.96 226.195 182.96 220.68V205.434H198.801C204.532 205.434 209.177 200.963 209.177 195.448C209.178 189.933 204.532 185.462 198.802 185.462V185.462Z" fill="#F6EFEA"/>
<path d="M200.856 185.401H185.015V170.155C185.015 164.718 180.499 160.306 174.881 160.18V230.593C180.499 230.468 185.015 226.055 185.015 220.618V205.372H200.856C206.587 205.372 211.232 200.901 211.232 195.386C211.232 189.872 206.587 185.401 200.856 185.401V185.401Z" fill="#E0D2CD"/>
</g>
<path d="M385.903 194.936H276.361C272.539 194.936 269.441 192.068 269.441 188.529V85.7874C269.441 82.249 272.539 79.3803 276.361 79.3803H385.903C389.725 79.3803 392.823 82.249 392.823 85.7874V188.529C392.823 192.068 389.725 194.936 385.903 194.936Z" fill="#0082FF"/>
<path d="M354.806 145.833H307.458C302.283 145.833 298.088 141.95 298.088 137.159C298.088 132.368 302.283 128.484 307.458 128.484H354.806C359.981 128.484 364.176 132.368 364.176 137.159C364.176 141.95 359.981 145.833 354.806 145.833Z" fill="#F6EFEA"/>
<path d="M385.554 79.3803H327.019V194.988H385.554C389.655 194.988 392.979 192.118 392.979 188.578V85.7897C392.98 82.2497 389.655 79.3803 385.554 79.3803Z" fill="#3A4DE2"/>
<path d="M354.806 128.484H331.351V145.833H354.806C359.981 145.833 364.176 141.949 364.176 137.158C364.176 132.368 359.981 128.484 354.806 128.484Z" fill="#E0D2CD"/>
<g filter="url(#filter0_d)">
<path d="M555.6 260.728C551.376 260.728 548.016 259.48 545.52 256.984C543.216 254.488 542.064 251.704 542.064 248.632C542.064 245.56 542.448 242.392 543.216 239.128L578.928 75.832C579.696 72.376 581.328 69.688 583.824 67.768C586.32 65.656 589.392 64.6 593.04 64.6C599.76 64.6 604.176 67.864 606.288 74.392L646.896 201.976L692.976 73.816C695.28 67.672 700.08 64.6 707.376 64.6C710.64 64.6 713.328 65.656 715.44 67.768C717.744 69.688 719.28 72.376 720.048 75.832L756.624 238.84C757.584 243.256 758.064 246.136 758.064 247.48C758.064 251.128 756.72 254.296 754.032 256.984C751.344 259.48 747.984 260.728 743.952 260.728C740.112 260.728 737.04 259.768 734.736 257.848C732.432 255.736 730.896 253.048 730.128 249.784L703.632 129.4L659.28 251.512C658.32 254.392 656.592 256.696 654.096 258.424C651.6 259.96 648.816 260.728 645.744 260.728C639.024 260.728 634.608 257.464 632.496 250.936L595.056 133.72L569.712 249.496C568.944 252.952 567.312 255.736 564.816 257.848C562.32 259.768 559.248 260.728 555.6 260.728ZM878.351 263.608C874.511 263.608 871.343 262.552 868.847 260.44C866.543 258.328 865.391 255.544 865.391 252.088V248.056C857.519 256.504 846.575 260.728 832.559 260.728C821.999 260.728 812.495 258.136 804.047 252.952C795.599 247.768 788.975 240.472 784.175 231.064C779.375 221.464 776.975 210.616 776.975 198.52C776.975 185.08 779.855 172.12 785.615 159.64C791.375 146.968 799.439 136.696 809.807 128.824C820.367 120.952 832.463 117.016 846.095 117.016C854.927 117.016 862.895 118.264 869.999 120.76C877.103 123.064 884.495 125.944 892.175 129.4V249.208C892.175 253.048 890.831 256.408 888.143 259.288C885.455 262.168 882.191 263.608 878.351 263.608ZM834.575 233.944C840.143 233.944 845.519 232.792 850.703 230.488C856.079 228.184 860.495 225.4 863.951 222.136L864.815 146.968C859.247 144.664 853.199 143.512 846.671 143.512C838.415 143.512 831.119 146.104 824.783 151.288C818.447 156.28 813.551 163 810.095 171.448C806.639 179.704 804.911 188.536 804.911 197.944C804.911 209.656 807.503 218.584 812.687 224.728C817.871 230.872 825.167 233.944 834.575 233.944ZM957.497 261.016C953.849 261.016 950.585 259.672 947.705 256.984C945.017 254.296 943.673 251.128 943.673 247.48V144.664H920.921C917.081 144.664 913.817 143.32 911.129 140.632C908.441 137.752 907.097 134.488 907.097 130.84C907.097 126.616 908.537 123.256 911.417 120.76C914.297 118.072 917.657 116.728 921.497 116.728H943.673V85.912C943.673 82.264 945.017 79 947.705 76.12C950.393 73.24 953.657 71.8 957.497 71.8C961.529 71.8 964.793 73.24 967.289 76.12C969.977 78.808 971.321 82.072 971.321 85.912V116.728H995.801C999.641 116.728 1002.91 118.072 1005.59 120.76C1008.28 123.448 1009.63 126.808 1009.63 130.84C1009.63 134.488 1008.28 137.752 1005.59 140.632C1002.91 143.32 999.641 144.664 995.801 144.664H971.321V247.48C971.321 251.128 969.977 254.296 967.289 256.984C964.601 259.672 961.337 261.016 957.497 261.016ZM1040.77 261.016C1037.12 261.016 1033.85 259.672 1030.97 256.984C1028.29 254.104 1026.94 250.84 1026.94 247.192V81.304C1026.94 77.464 1028.29 74.2 1030.97 71.512C1033.85 68.632 1037.31 67.192 1041.34 67.192C1045.18 67.192 1048.35 68.632 1050.85 71.512C1053.34 74.2 1054.59 77.464 1054.59 81.304V143.224C1060.93 135.16 1068.13 128.728 1076.19 123.928C1084.25 118.936 1092.32 116.44 1100.38 116.44C1115.55 116.44 1126.21 124.12 1132.35 139.48C1138.49 154.648 1141.57 178.744 1141.57 211.768C1141.57 230.392 1141.28 242.392 1140.7 247.768C1140.51 251.416 1139.07 254.488 1136.38 256.984C1133.89 259.48 1130.81 260.728 1127.17 260.728C1123.13 260.728 1119.87 259.48 1117.37 256.984C1114.88 254.296 1113.63 251.032 1113.63 247.192C1113.63 243.352 1113.73 240.184 1113.92 237.688L1114.21 213.784C1114.21 185.944 1112.67 167.32 1109.6 157.912C1106.72 148.504 1103.07 143.8 1098.65 143.8C1093.09 143.8 1087.42 146.392 1081.66 151.576C1075.9 156.568 1070.91 162.232 1066.69 168.568C1062.65 174.712 1059.77 179.608 1058.05 183.256C1055.74 188.44 1054.59 195.256 1054.59 203.704V246.616C1054.59 251.032 1053.25 254.584 1050.56 257.272C1047.87 259.768 1044.61 261.016 1040.77 261.016ZM555.6 591.728C551.376 591.728 548.016 590.48 545.52 587.984C543.216 585.488 542.064 582.704 542.064 579.632C542.064 576.56 542.448 573.392 543.216 570.128L578.928 406.832C579.696 403.376 581.328 400.688 583.824 398.768C586.32 396.656 589.392 395.6 593.04 395.6C599.76 395.6 604.176 398.864 606.288 405.392L646.896 532.976L692.976 404.816C695.28 398.672 700.08 395.6 707.376 395.6C710.64 395.6 713.328 396.656 715.44 398.768C717.744 400.688 719.28 403.376 720.048 406.832L756.624 569.84C757.584 574.256 758.064 577.136 758.064 578.48C758.064 582.128 756.72 585.296 754.032 587.984C751.344 590.48 747.984 591.728 743.952 591.728C740.112 591.728 737.04 590.768 734.736 588.848C732.432 586.736 730.896 584.048 730.128 580.784L703.632 460.4L659.28 582.512C658.32 585.392 656.592 587.696 654.096 589.424C651.6 590.96 648.816 591.728 645.744 591.728C639.024 591.728 634.608 588.464 632.496 581.936L595.056 464.72L569.712 580.496C568.944 583.952 567.312 586.736 564.816 588.848C562.32 590.768 559.248 591.728 555.6 591.728ZM878.351 594.608C874.511 594.608 871.343 593.552 868.847 591.44C866.543 589.328 865.391 586.544 865.391 583.088V579.056C857.519 587.504 846.575 591.728 832.559 591.728C821.999 591.728 812.495 589.136 804.047 583.952C795.599 578.768 788.975 571.472 784.175 562.064C779.375 552.464 776.975 541.616 776.975 529.52C776.975 516.08 779.855 503.12 785.615 490.64C791.375 477.968 799.439 467.696 809.807 459.824C820.367 451.952 832.463 448.016 846.095 448.016C854.927 448.016 862.895 449.264 869.999 451.76C877.103 454.064 884.495 456.944 892.175 460.4V580.208C892.175 584.048 890.831 587.408 888.143 590.288C885.455 593.168 882.191 594.608 878.351 594.608ZM834.575 564.944C840.143 564.944 845.519 563.792 850.703 561.488C856.079 559.184 860.495 556.4 863.951 553.136L864.815 477.968C859.247 475.664 853.199 474.512 846.671 474.512C838.415 474.512 831.119 477.104 824.783 482.288C818.447 487.28 813.551 494 810.095 502.448C806.639 510.704 804.911 519.536 804.911 528.944C804.911 540.656 807.503 549.584 812.687 555.728C817.871 561.872 825.167 564.944 834.575 564.944ZM981.689 640.112C970.553 640.112 959.225 638.768 947.705 636.08C944.633 635.312 942.041 633.68 939.929 631.184C938.009 628.688 937.049 625.808 937.049 622.544C937.049 618.704 938.393 615.44 941.081 612.752C943.961 610.064 947.225 608.72 950.873 608.72C953.177 608.72 956.249 609.2 960.089 610.16C960.857 610.352 963.257 610.736 967.289 611.312C971.321 612.08 976.025 612.464 981.401 612.464C1001.18 612.464 1011.83 602.576 1013.37 582.8L1013.95 575.888C1010.68 580.304 1006.36 583.664 1000.99 585.968C995.609 588.08 989.849 589.136 983.705 589.136C973.529 589.136 963.929 586.64 954.905 581.648C946.073 576.464 938.969 569.072 933.593 559.472C928.217 549.68 925.529 538.256 925.529 525.2C925.529 511.568 928.505 498.8 934.457 486.896C940.601 474.992 948.857 465.488 959.225 458.384C969.785 451.28 981.401 447.728 994.073 447.728C1001.18 447.728 1009.15 449.456 1017.98 452.912C1019.51 447.536 1023.93 444.848 1031.23 444.848C1035.26 444.848 1038.52 446 1041.02 448.304C1043.71 450.416 1044.95 453.968 1044.76 458.96L1041.88 580.496C1041.5 600.272 1035.83 615.152 1024.89 625.136C1013.95 635.12 999.545 640.112 981.689 640.112ZM981.977 562.064C992.537 562.064 1000.79 558.32 1006.75 550.832C1012.7 543.152 1015.67 531.344 1015.67 515.408V480.56C1012.99 479.024 1009.72 477.776 1005.88 476.816C1002.23 475.856 998.681 475.376 995.225 475.376C987.353 475.376 980.057 477.488 973.337 481.712C966.809 485.744 961.529 491.408 957.497 498.704C953.657 506 951.737 514.16 951.737 523.184C951.737 534.896 954.617 544.304 960.377 551.408C966.329 558.512 973.529 562.064 981.977 562.064ZM1105.77 435.92C1102.13 435.92 1098.86 434.48 1095.98 431.6C1093.29 428.72 1092.05 425.456 1092.24 421.808L1092.53 411.152C1092.72 407.504 1094.16 404.336 1096.85 401.648C1099.53 398.96 1102.7 397.616 1106.35 397.616C1110 397.616 1113.17 399.056 1115.85 401.936C1118.73 404.816 1120.08 407.984 1119.89 411.44L1119.6 422.384C1119.41 426.224 1117.97 429.488 1115.28 432.176C1112.78 434.672 1109.61 435.92 1105.77 435.92ZM1104.33 591.728C1100.49 591.728 1097.13 590.384 1094.25 587.696C1091.57 584.816 1090.22 581.456 1090.22 577.616L1091.66 462.992C1091.66 459.152 1093.01 455.888 1095.69 453.2C1098.57 450.32 1101.93 448.88 1105.77 448.88C1109.81 448.88 1113.17 450.32 1115.85 453.2C1118.54 455.888 1119.89 459.152 1119.89 462.992L1118.45 577.616C1118.45 581.456 1117.01 584.816 1114.13 587.696C1111.44 590.384 1108.17 591.728 1104.33 591.728ZM1213.82 591.728C1202.3 591.728 1191.74 588.944 1182.14 583.376C1172.54 577.808 1164.96 570.224 1159.39 560.624C1153.82 550.832 1151.04 540.176 1151.04 528.656C1151.04 515.6 1154.11 502.832 1160.25 490.352C1166.4 477.872 1174.46 467.696 1184.45 459.824C1194.43 451.952 1204.99 448.016 1216.13 448.016C1226.3 448.016 1234.46 449.648 1240.61 452.912C1246.94 455.984 1253.09 460.976 1259.04 467.888C1261.92 470.96 1263.36 474.32 1263.36 477.968C1263.36 481.616 1262.01 484.784 1259.33 487.472C1256.64 489.968 1253.37 491.216 1249.53 491.216C1247.04 491.216 1245.02 490.832 1243.49 490.064C1242.14 489.296 1240.51 487.76 1238.59 485.456C1235.33 481.808 1232.06 479.024 1228.8 477.104C1225.73 475.184 1221.6 474.224 1216.41 474.224C1210.46 474.224 1204.41 476.816 1198.27 482C1192.32 487.184 1187.42 494 1183.58 502.448C1179.93 510.704 1178.11 519.248 1178.11 528.08C1178.11 535.76 1179.74 542.48 1183.01 548.24C1186.46 553.808 1190.88 558.128 1196.25 561.2C1201.63 564.08 1207.29 565.52 1213.25 565.52C1220.93 565.52 1227.17 564.08 1231.97 561.2C1236.96 558.32 1241.37 554.384 1245.21 549.392C1248.86 544.592 1252.99 542.192 1257.6 542.192C1261.25 542.192 1264.41 543.536 1267.1 546.224C1269.79 548.72 1271.13 551.6 1271.13 554.864C1271.13 558.704 1270.08 561.968 1267.97 564.656C1262.4 572.144 1254.81 578.576 1245.21 583.952C1235.61 589.136 1225.15 591.728 1213.82 591.728ZM1311.09 435.92C1307.44 435.92 1304.18 434.48 1301.3 431.6C1298.61 428.72 1297.36 425.456 1297.55 421.808L1297.84 411.152C1298.03 407.504 1299.47 404.336 1302.16 401.648C1304.85 398.96 1308.02 397.616 1311.66 397.616C1315.31 397.616 1318.48 399.056 1321.17 401.936C1324.05 404.816 1325.39 407.984 1325.2 411.44L1324.91 422.384C1324.72 426.224 1323.28 429.488 1320.59 432.176C1318.1 434.672 1314.93 435.92 1311.09 435.92ZM1309.65 591.728C1305.81 591.728 1302.45 590.384 1299.57 587.696C1296.88 584.816 1295.54 581.456 1295.54 577.616L1296.98 462.992C1296.98 459.152 1298.32 455.888 1301.01 453.2C1303.89 450.32 1307.25 448.88 1311.09 448.88C1315.12 448.88 1318.48 450.32 1321.17 453.2C1323.86 455.888 1325.2 459.152 1325.2 462.992L1323.76 577.616C1323.76 581.456 1322.32 584.816 1319.44 587.696C1316.75 590.384 1313.49 591.728 1309.65 591.728ZM1457.73 594.608C1453.89 594.608 1450.72 593.552 1448.22 591.44C1445.92 589.328 1444.77 586.544 1444.77 583.088V579.056C1436.89 587.504 1425.95 591.728 1411.93 591.728C1401.37 591.728 1391.87 589.136 1383.42 583.952C1374.97 578.768 1368.35 571.472 1363.55 562.064C1358.75 552.464 1356.35 541.616 1356.35 529.52C1356.35 516.08 1359.23 503.12 1364.99 490.64C1370.75 477.968 1378.81 467.696 1389.18 459.824C1399.74 451.952 1411.84 448.016 1425.47 448.016C1434.3 448.016 1442.27 449.264 1449.37 451.76C1456.48 454.064 1463.87 456.944 1471.55 460.4V580.208C1471.55 584.048 1470.21 587.408 1467.52 590.288C1464.83 593.168 1461.57 594.608 1457.73 594.608ZM1413.95 564.944C1419.52 564.944 1424.89 563.792 1430.08 561.488C1435.45 559.184 1439.87 556.4 1443.33 553.136L1444.19 477.968C1438.62 475.664 1432.57 474.512 1426.05 474.512C1417.79 474.512 1410.49 477.104 1404.16 482.288C1397.82 487.28 1392.93 494 1389.47 502.448C1386.01 510.704 1384.29 519.536 1384.29 528.944C1384.29 540.656 1386.88 549.584 1392.06 555.728C1397.25 561.872 1404.54 564.944 1413.95 564.944ZM1525.64 591.728C1521.99 591.728 1518.73 590.384 1515.85 587.696C1513.16 585.008 1511.82 581.936 1511.82 578.48V461.552C1511.82 457.712 1513.26 454.448 1516.14 451.76C1519.02 449.072 1522.38 447.728 1526.22 447.728C1529.86 447.728 1532.94 449.072 1535.43 451.76C1538.12 454.448 1539.46 457.712 1539.46 461.552V483.44C1544.84 471.92 1551.66 463.184 1559.91 457.232C1568.17 451.088 1577.19 448.016 1586.98 448.016C1597.74 448.016 1606.28 450.512 1612.62 455.504C1618.95 460.496 1623.56 468.752 1626.44 480.272C1629.32 491.6 1630.76 507.344 1630.76 527.504L1630.47 577.904C1630.47 581.552 1629.22 584.816 1626.73 587.696C1624.23 590.384 1621.06 591.728 1617.22 591.728C1613.58 591.728 1610.31 590.384 1607.43 587.696C1604.74 584.816 1603.4 581.648 1603.4 578.192V530.384C1603.4 515.408 1602.73 503.888 1601.38 495.824C1600.04 487.76 1598.02 482.288 1595.34 479.408C1592.65 476.336 1589 474.8 1584.39 474.8C1578.63 474.8 1572.87 477.296 1567.11 482.288C1561.35 487.088 1555.98 494 1550.98 503.024C1546.57 510.896 1543.5 518.576 1541.77 526.064C1540.04 533.552 1539.18 542.576 1539.18 553.136V577.328C1539.18 581.552 1537.93 585.008 1535.43 587.696C1533.13 590.384 1529.86 591.728 1525.64 591.728ZM1709.66 591.728C1698.53 591.728 1688.83 589.328 1680.58 584.528C1672.51 579.536 1666.27 573.872 1661.86 567.536C1657.63 561.008 1655.52 555.728 1655.52 551.696C1655.52 547.856 1656.86 544.688 1659.55 542.192C1662.24 539.504 1665.41 538.16 1669.06 538.16C1672.32 538.16 1675.01 539.024 1677.12 540.752C1679.42 542.48 1681.06 544.784 1682.02 547.664C1684.13 553.616 1687.58 558.32 1692.38 561.776C1697.18 565.232 1703.14 566.96 1710.24 566.96C1717.73 566.96 1723.58 565.136 1727.81 561.488C1732.03 557.84 1734.14 553.712 1734.14 549.104C1734.14 544.688 1732.32 541.232 1728.67 538.736C1725.22 536.048 1718.11 533.072 1707.36 529.808C1691.62 525.008 1680.29 519.344 1673.38 512.816C1666.46 506.096 1663.01 497.36 1663.01 486.608C1663.01 475.28 1667.52 466.064 1676.54 458.96C1685.57 451.664 1698.14 448.016 1714.27 448.016C1729.25 448.016 1740.86 451.28 1749.12 457.808C1757.57 464.336 1761.79 473.072 1761.79 484.016C1761.79 489.968 1760.54 494.576 1758.05 497.84C1755.55 500.912 1752 502.448 1747.39 502.448C1743.36 502.448 1740.1 501.2 1737.6 498.704C1735.1 496.208 1733.86 493.52 1733.86 490.64C1733.86 489.68 1734.05 488.528 1734.43 487.184C1735.01 485.648 1735.3 484.496 1735.3 483.728C1735.3 480.272 1733.57 477.488 1730.11 475.376C1726.85 473.264 1721.76 472.208 1714.85 472.208C1706.21 472.208 1699.78 473.456 1695.55 475.952C1691.52 478.448 1689.5 481.808 1689.5 486.032C1689.5 490.448 1691.62 494.096 1695.84 496.976C1700.06 499.664 1707.65 502.736 1718.59 506.192C1734.53 511.184 1745.57 516.656 1751.71 522.608C1758.05 528.56 1761.22 536.912 1761.22 547.664C1761.22 554.96 1759.01 562.064 1754.59 568.976C1750.37 575.696 1744.32 581.168 1736.45 585.392C1728.77 589.616 1719.84 591.728 1709.66 591.728Z" fill="black"/>
</g>
<defs>
<filter id="filter0_d" x="538.064" y="64.6" width="1227.73" height="583.512" filterUnits="userSpaceOnUse" color-interpolation-filters="sRGB">
<feFlood flood-opacity="0" result="BackgroundImageFix"/>
<feColorMatrix in="SourceAlpha" type="matrix" values="0 0 0 0 0 0 0 0 0 0 0 0 0 0 0 0 0 0 127 0"/>
<feOffset dy="4"/>
<feGaussianBlur stdDeviation="2"/>
<feColorMatrix type="matrix" values="0 0 0 0 0 0 0 0 0 0 0 0 0 0 0 0 0 0 0.25 0"/>
<feBlend mode="normal" in2="BackgroundImageFix" result="effect1_dropShadow"/>
<feBlend mode="normal" in="SourceGraphic" in2="effect1_dropShadow" result="shape"/>
</filter>
<clipPath id="clip0">
<rect width="278.286" height="281.72" fill="white" transform="translate(193.496 247.238)"/>
</clipPath>
<clipPath id="clip1">
<rect width="487" height="493.01" fill="white" transform="translate(0 134.99)"/>
</clipPath>
</defs>
</svg>
